<svg version="1.1" id="Layer_1" xmlns="http://www.w3.org/2000/svg" xmlns:xlink="http://www.w3.org/1999/xlink" x="0px" y="0px"
	 width="100%" viewBox="0 0 1536 1024" enable-background="new 0 0 1536 1024" xml:space="preserve">
<path fill="#000000" opacity="1.000000" stroke="none" 
	d="
M971.000000,1025.000000 
	C647.333313,1025.000000 324.166656,1025.000000 1.000000,1025.000000 
	C1.000000,683.666687 1.000000,342.333344 1.000000,1.000000 
	C513.000000,1.000000 1025.000000,1.000000 1537.000000,1.000000 
	C1537.000000,342.333344 1537.000000,683.666687 1537.000000,1025.000000 
	C1348.500000,1025.000000 1160.000000,1025.000000 971.000000,1025.000000 
M1235.036743,428.026917 
	C1237.301514,428.315796 1239.563232,428.820526 1241.831543,428.851837 
	C1247.884033,428.935364 1254.079468,430.034149 1259.797852,426.365173 
	C1248.881836,425.962311 1237.965942,425.559448 1226.114746,425.021637 
	C1210.180420,424.685944 1194.247314,424.284882 1178.311646,424.030762 
	C1157.212280,423.694305 1136.111206,423.472839 1114.083130,423.049255 
	C1102.812988,422.703033 1091.545166,422.193604 1080.272461,422.041870 
	C1049.349976,421.625610 1018.425903,421.157440 987.501770,421.103638 
	C966.072144,421.066376 944.641846,421.713348 923.211060,421.998230 
	C896.119141,422.358337 869.025879,422.621979 841.934265,423.002472 
	C823.498474,423.261414 805.065247,423.701172 786.629517,423.967255 
	C759.371216,424.360748 732.111694,424.669250 704.852844,425.022675 
	C702.692932,425.050690 700.533997,425.147430 697.560120,425.094971 
	C686.470215,425.542236 675.380310,425.989502 664.290405,426.436798 
	C673.317688,430.298218 682.665710,428.581757 692.823120,428.942108 
	C713.728699,429.290161 734.633667,429.675934 755.539917,429.976624 
	C781.290466,430.346985 807.041626,430.889435 832.793152,430.931335 
	C912.209778,431.060486 991.626648,430.988922 1071.043457,430.983368 
	C1073.702881,430.983185 1076.362183,430.854492 1079.943970,430.908478 
	C1085.932251,430.866943 1091.920410,430.825378 1098.705811,430.938721 
	C1116.127563,430.565613 1133.549316,430.192505 1151.905273,429.938751 
	C1173.319214,429.617889 1194.733032,429.291992 1216.147095,428.979919 
	C1221.137207,428.907227 1226.128174,428.881470 1231.722900,428.956818 
	C1232.131592,428.918671 1232.540283,428.880524 1233.497314,428.885010 
	C1233.720459,428.604950 1233.943604,428.324890 1235.036743,428.026917 
M745.116150,361.490051 
	C745.116150,361.490051 745.486206,361.814301 745.486206,361.814301 
	C745.486206,361.814301 745.976013,361.768036 746.857849,361.899384 
	C749.233459,361.947937 751.609070,361.996521 754.429443,362.705597 
	C756.291321,362.737152 758.153198,362.768677 760.846680,362.981293 
	C762.596436,363.312500 764.334412,363.735962 766.097778,363.960175 
	C778.909668,365.589081 791.700928,367.440613 804.549805,368.700256 
	C815.843323,369.807495 827.196655,370.567322 838.537231,370.792816 
	C842.645203,370.874542 848.269043,370.856689 847.330566,363.571808 
	C847.187439,362.461090 848.529846,360.795563 849.621643,359.950287 
	C855.227661,355.609985 859.370239,350.502594 859.133850,341.720917 
	C860.297729,344.521027 860.934814,346.053741 861.596802,347.646423 
	C862.618225,346.206482 863.472778,345.001831 864.327332,343.797150 
	C863.494141,351.524506 870.744446,353.038391 873.851135,357.322418 
	C875.668091,359.827881 879.404602,361.419464 875.531189,365.170868 
	C874.840698,365.839661 875.276550,367.671387 875.087158,369.719177 
	C876.009583,370.344025 876.925049,371.502533 877.855469,371.514709 
	C895.248413,371.742432 912.643066,371.852295 930.037598,371.948578 
	C944.822144,372.030426 959.025269,375.731598 973.047607,379.671173 
	C995.590027,386.004456 1017.878052,393.242767 1040.280396,400.076385 
	C1042.692749,400.812256 1045.150024,401.400513 1047.586548,402.057220 
	C1047.723755,401.546051 1047.861084,401.034851 1047.998291,400.523682 
	C1046.282104,399.702240 1044.609375,398.770142 1042.843018,398.076477 
	C1024.847656,391.009430 1006.797974,384.079010 988.841614,376.914459 
	C971.103760,369.837067 953.000793,363.223083 933.929199,362.414642 
	C917.684448,361.726105 901.307739,364.149078 884.179688,365.072937 
	C882.580017,365.262299 880.980408,365.451630 879.019409,365.683746 
	C879.584534,357.533630 878.191589,350.064026 871.194580,344.772736 
	C871.863525,345.139740 872.532410,345.506775 873.297119,345.926331 
	C872.329163,342.851807 872.187683,339.464844 870.445923,337.487335 
	C866.918823,333.482666 867.178284,328.977783 866.950867,324.329498 
	C866.677124,318.733429 866.026123,313.154694 865.795166,307.557861 
	C865.390503,297.751404 865.341858,287.927948 864.796570,278.130951 
	C864.623901,275.027405 863.344482,271.985474 862.571533,268.915344 
	C862.213989,269.032349 861.856445,269.149323 861.498901,269.266327 
	C858.766602,295.027100 856.034241,320.787903 853.276733,346.785614 
	C848.721008,346.912994 845.850159,348.472015 845.505554,352.953491 
	C845.448608,353.693970 844.813049,354.419983 844.358765,355.094635 
	C842.533447,357.805511 840.674194,360.493530 838.464111,363.720551 
	C821.811584,366.134430 804.892944,361.002991 787.727478,358.332031 
	C775.144287,356.373993 762.585815,354.257690 749.172668,352.047699 
	C739.786194,351.430115 730.399658,350.812531 720.083923,350.051361 
	C711.315430,350.369080 702.482361,350.126404 693.792847,351.128998 
	C678.808044,352.858032 663.788330,354.738312 649.008667,357.685638 
	C626.708618,362.132660 604.422729,366.227356 581.591431,365.989166 
	C567.831848,365.845642 554.075317,365.066162 540.318420,365.091492 
	C522.568298,365.124207 504.813171,365.491425 487.071777,366.070251 
	C475.695648,366.441437 464.340454,367.453949 452.133087,368.079468 
	C450.703491,368.388763 449.288055,368.816589 447.842133,368.989258 
	C430.737488,371.032379 413.597168,372.806671 396.528412,375.112244 
	C376.404266,377.830597 356.372467,381.236969 336.242035,383.903046 
	C318.500702,386.252747 300.674255,387.955536 282.899384,390.062286 
	C281.081665,390.277740 279.360107,391.304260 277.593903,391.954437 
	C277.722473,392.421570 277.851044,392.888733 277.979614,393.355865 
	C283.885559,392.897522 289.790710,392.428619 295.697632,391.983246 
	C304.899841,391.289398 314.113068,390.721466 323.303833,389.900940 
	C336.898743,388.687256 350.472595,387.238434 364.065704,386.003143 
	C376.196625,384.900757 388.349854,384.041412 400.478302,382.914490 
	C417.992767,381.287109 435.493744,379.515015 453.509064,377.846832 
	C453.698914,377.577728 453.888763,377.308624 454.987640,376.975616 
	C458.650330,376.916138 462.313019,376.856659 466.579742,376.933228 
	C467.061066,376.644257 467.542389,376.355255 468.760193,375.969727 
	C469.499695,375.913300 470.239227,375.856873 471.907349,375.955536 
	C481.334503,375.631256 490.763214,375.002167 500.188477,375.050476 
	C516.438477,375.133728 532.686218,375.889435 548.934998,375.894318 
	C564.685059,375.899078 580.458862,375.737213 596.178040,374.857910 
	C609.457153,374.115082 622.809509,373.013428 635.887939,370.703400 
	C662.118958,366.070251 688.197205,360.599792 715.837402,360.910980 
	C717.219482,360.872467 718.601562,360.833954 720.908264,360.943787 
	C725.623779,360.907257 730.339233,360.870697 735.947449,360.953308 
	C738.953430,360.985870 741.959351,361.018433 744.992615,360.999725 
	C744.992615,360.999725 744.942627,361.029572 745.116150,361.490051 
M1235.161011,718.020874 
	C1199.528687,718.020874 1163.896484,718.020874 1128.187500,718.020874 
	C1127.296875,721.861938 1130.368286,720.978027 1132.480713,720.979370 
	C1164.754761,721.000549 1197.028809,720.995728 1229.302734,720.914490 
	C1231.226562,720.909607 1233.148682,720.207886 1235.961426,719.944824 
	C1244.881104,720.123047 1253.911133,722.641357 1262.648682,718.170776 
	C1253.773804,718.170776 1244.898804,718.170776 1235.161011,718.020874 
M298.890289,717.950256 
	C334.743195,717.985718 370.596130,718.047424 406.448761,717.964905 
	C407.948761,717.961487 409.445709,716.612854 410.944092,715.890930 
	C409.500244,715.265747 408.052551,714.086731 406.613068,714.096741 
	C373.369385,714.327087 340.126587,714.686157 306.883667,715.028503 
	C306.554749,715.031860 306.226776,715.129822 305.137939,715.081787 
	C304.113922,715.111450 303.089905,715.141052 301.262482,715.012878 
	C300.176239,715.064026 299.090027,715.115173 297.067780,715.067078 
	C289.855103,715.067078 282.642426,715.067078 275.429779,715.067078 
	C275.453552,715.973450 275.477325,716.879883 275.501129,717.786255 
	C282.987640,717.786255 290.474152,717.786255 298.890289,717.950256 
M859.808228,481.010223 
	C861.570740,481.340240 863.327637,481.921265 865.096680,481.961121 
	C881.359802,482.327606 897.625305,482.859619 913.889404,482.835175 
	C934.483215,482.804199 955.077515,482.359406 975.669250,481.971252 
	C985.603943,481.783997 995.533569,481.323120 1005.464417,480.956512 
	C1005.786194,480.944672 1006.095886,480.607666 1007.583984,479.732697 
	C1003.255005,479.019257 1000.142639,478.168793 997.002319,478.048553 
	C984.905396,477.585297 972.798096,477.042999 960.697266,477.098541 
	C926.781555,477.254181 892.867004,477.692139 858.952087,478.024963 
	C858.622375,478.028198 858.293396,478.115875 857.040894,478.047150 
	C851.092041,478.501068 844.833801,476.582153 839.302429,480.866211 
	C845.854187,480.866211 852.405945,480.866211 859.808228,481.010223 
M832.602417,583.519531 
	C832.133911,580.634338 830.645996,576.491333 834.375977,575.778931 
	C841.158325,574.483704 848.305481,573.710571 854.794983,577.644836 
	C857.741638,579.431274 860.689636,581.215515 864.049011,583.250305 
	C863.275513,587.480286 862.551086,592.722168 861.307312,597.837646 
	C860.318359,601.904907 857.357239,604.243713 853.170410,604.984009 
	C850.489441,605.458008 847.832214,606.066772 843.962769,606.862061 
	C848.272766,612.142822 851.822693,616.492310 855.441956,620.926758 
	C859.250305,618.107727 860.436035,615.643860 858.721985,611.784851 
	C858.100159,610.384888 858.667969,607.673462 859.725037,606.458008 
	C862.864319,602.848328 866.878784,599.966675 869.799011,596.214966 
	C871.043762,594.615845 870.728271,591.541687 870.561829,589.177307 
	C870.392029,586.764526 869.668579,584.358459 868.940979,582.026367 
	C868.218384,579.710449 867.780945,576.809631 866.151245,575.392456 
	C863.873474,573.411682 860.666870,571.592041 857.751099,571.409790 
	C845.487305,570.643250 833.184204,570.494080 820.893677,570.195679 
	C820.239319,570.179810 819.567871,570.863831 818.365295,571.513062 
	C825.671631,575.496338 825.348755,581.867859 825.359985,588.441223 
	C825.373474,596.357849 826.153076,604.272644 826.573181,612.189697 
	C826.633972,613.335388 826.622437,614.498230 826.501892,615.638000 
	C826.034119,620.062256 825.335022,624.469360 825.050659,628.903809 
	C824.727783,633.939392 826.450012,639.792236 818.283752,641.336731 
	C825.957703,644.236633 832.689209,642.181885 839.452881,641.496826 
	C839.539307,641.004272 839.625732,640.511780 839.712158,640.019226 
	C836.890625,639.268921 834.069153,638.518616 830.501221,637.569824 
	C833.592957,628.974304 836.962402,620.015076 831.679688,610.909973 
	C834.567200,603.750549 834.228333,596.446411 832.805786,589.048279 
	C832.509766,587.509033 832.836914,585.849915 832.602417,583.519531 
M1196.845337,589.110107 
	C1196.116333,588.059143 1195.545654,586.838318 1194.631348,585.986328 
	C1190.457275,582.097351 1190.967529,577.105591 1196.352905,576.155396 
	C1201.677002,575.215881 1207.761963,574.974304 1212.722534,576.699829 
	C1216.899170,578.152710 1219.940796,582.868958 1224.056641,586.668396 
	C1224.056641,585.072754 1224.317627,583.156860 1223.992310,581.346252 
	C1223.560913,578.945129 1222.366943,576.665344 1222.058350,574.261841 
	C1221.692871,571.414429 1220.430054,570.038208 1217.600586,570.038513 
	C1200.123657,570.040405 1182.646362,569.998596 1165.170288,570.127258 
	C1163.929688,570.136414 1161.750977,571.247620 1161.620361,572.095093 
	C1160.913818,576.675232 1160.715576,581.333862 1160.342163,585.965393 
	C1162.364746,585.453247 1163.359863,584.762695 1163.742676,583.822815 
	C1166.685669,576.593872 1172.732422,575.251099 1179.601440,574.951721 
	C1184.330444,574.745544 1186.121582,576.522888 1186.065430,581.314697 
	C1185.878540,597.291992 1185.989014,613.272888 1186.010254,629.252380 
	C1186.013428,631.579468 1186.775635,634.129578 1186.047607,636.169922 
	C1185.337891,638.158508 1183.167114,639.625732 1181.339600,641.652588 
	C1183.760864,642.068420 1185.862183,642.612061 1187.991089,642.760498 
	C1194.222412,643.195251 1197.251831,640.197388 1197.048340,634.140808 
	C1196.936523,630.815125 1197.372070,627.427429 1196.876953,624.171692 
	C1196.460205,621.432007 1194.651733,618.911804 1194.181519,616.170471 
	C1193.482300,612.093933 1191.708862,606.841431 1193.473999,604.010376 
	C1196.370483,599.364563 1197.251709,595.009888 1196.845337,589.110107 
M1020.506409,453.000000 
	C1013.744263,453.000427 1006.981628,452.944458 1000.220154,453.010712 
	C963.116882,453.374115 926.013916,453.767334 888.910889,454.150818 
	C886.912109,454.171478 884.906860,454.107300 882.916809,454.251190 
	C881.678711,454.340759 880.463562,454.747986 879.238098,455.012604 
	C885.707214,456.103851 892.088867,456.668243 898.480347,456.822815 
	C917.417297,457.280762 936.357666,457.600311 955.297546,457.930420 
	C976.070190,458.292511 996.842712,458.735718 1017.617188,458.879333 
	C1026.396606,458.940033 1035.178345,458.213104 1043.962891,458.040466 
	C1064.732178,457.632324 1085.505005,457.393036 1106.273926,456.965851 
	C1111.120117,456.866150 1115.956421,456.290314 1120.797363,455.933563 
	C1119.515869,454.562958 1118.165161,454.059509 1116.802734,454.024963 
	C1102.028442,453.650146 1087.253784,453.209534 1072.476440,453.064331 
	C1055.487061,452.897308 1038.494873,453.009491 1020.506409,453.000000 
M813.015442,715.708374 
	C813.015442,721.324707 813.015442,726.941040 813.015442,732.925781 
	C814.955078,732.833984 816.329895,732.768921 817.836487,732.697632 
	C817.977844,729.690613 818.100891,727.073853 818.248291,723.937805 
	C823.335999,724.105469 827.402527,725.639709 829.957886,729.931885 
	C831.663696,732.797241 833.706055,733.743286 837.128052,732.339417 
	C834.974854,729.004578 832.966797,725.894592 831.959595,724.334656 
	C833.944702,719.752014 836.722778,716.245483 836.529175,712.911560 
	C836.359253,709.984924 833.401123,705.734314 830.707581,704.770447 
	C826.070374,703.110962 820.686279,703.434753 815.603394,703.233154 
	C814.815491,703.201965 813.356384,704.731934 813.251831,705.657898 
	C812.912048,708.665710 813.057312,711.728271 813.015442,715.708374 
M926.954895,707.908691 
	C926.170471,706.336609 925.386108,704.764526 924.601746,703.192444 
	C923.762695,704.871277 922.313049,706.510132 922.200012,708.236511 
	C921.873169,713.224792 922.084473,718.248413 922.084473,724.184265 
	C914.754517,716.766296 911.912964,706.970093 902.376831,702.394470 
	C902.376831,713.247131 902.376831,722.991211 902.376831,732.955872 
	C904.034607,732.867126 905.294617,732.799683 907.003540,732.708252 
	C907.003540,726.340576 907.003540,720.276550 907.003540,714.212524 
	C911.405762,718.550476 914.749634,723.302002 918.126831,728.029846 
	C920.213806,730.951355 922.166443,734.210388 926.958252,732.382446 
	C926.958252,724.459167 926.958252,716.643066 926.954895,707.908691 
M545.584290,720.901794 
	C551.370972,716.026550 549.879944,706.630493 542.399597,704.467651 
	C537.036133,702.916748 531.148926,703.177002 525.533875,702.632935 
	C524.993896,711.966431 524.287598,720.186951 524.164368,728.416260 
	C524.119751,731.395752 525.569702,734.249573 530.153992,732.232300 
	C530.153992,729.669556 530.153992,727.116089 530.153992,724.860352 
	C531.354187,724.925049 532.116760,725.113770 532.817749,724.979980 
	C537.342590,724.116272 540.447998,725.741272 542.077393,730.086975 
	C542.134827,730.240234 542.183899,730.406189 542.279724,730.534058 
	C544.025452,732.863220 546.053345,733.970398 548.998962,732.120056 
	C547.271118,729.483582 545.503296,727.108826 544.155029,724.515930 
	C543.790588,723.815002 544.696716,722.453369 545.584290,720.901794 
M676.991821,725.026367 
	C680.008728,728.073547 680.653625,734.342957 687.711731,732.568542 
	C686.810608,731.124329 686.131897,729.845154 685.274475,728.699646 
	C683.001587,725.662720 681.561096,723.247314 685.371399,719.707825 
	C688.819580,716.504761 687.765198,710.388428 684.467773,706.967224 
	C678.297607,700.565430 670.850525,703.684448 663.538635,703.340088 
	C663.538635,713.614258 663.538635,723.105042 663.538635,732.708740 
	C665.301941,732.708740 666.883911,732.708740 668.745117,732.708740 
	C668.901550,729.748779 669.046082,727.015015 669.207703,723.957031 
	C672.008911,724.093262 674.299072,724.204651 676.991821,725.026367 
M1092.217773,732.966553 
	C1092.303467,731.986145 1092.833252,730.695068 1092.400757,730.076965 
	C1090.028076,726.684753 1088.182617,724.021362 1091.503296,719.520264 
	C1095.792725,713.705811 1093.107544,705.438232 1087.140625,704.289185 
	C1081.729004,703.247009 1076.122192,703.218201 1070.039185,702.694153 
	C1070.039185,711.291260 1070.038452,718.917358 1070.039795,726.543457 
	C1070.040039,727.876221 1069.567383,729.516907 1070.173340,730.466187 
	C1070.984741,731.737183 1072.635010,732.472595 1074.755371,734.059448 
	C1074.952759,729.708130 1075.070923,727.101379 1075.205688,724.127380 
	C1079.114624,724.569092 1083.677856,721.647827 1084.848267,728.579407 
	C1085.150269,730.367676 1089.161011,731.529663 1092.217773,732.966553 
M625.151794,703.406921 
	C612.972717,706.149597 611.024658,716.539490 614.086975,725.008545 
	C615.941528,730.137146 623.101135,734.558533 628.303589,733.811523 
	C634.479309,732.924744 640.646118,730.886047 642.315674,723.962036 
	C643.688354,718.269043 644.450623,712.326294 639.070862,707.467896 
	C635.171204,703.946045 630.801514,703.070801 625.151794,703.406921 
M1047.137939,728.997803 
	C1043.185059,728.997803 1039.232056,728.997803 1035.279175,728.997803 
	C1035.245850,728.789978 1035.212646,728.582153 1035.179321,728.374329 
	C1036.410645,728.054626 1037.642090,727.734985 1038.873535,727.415344 
	C1038.880249,726.998169 1038.886963,726.581055 1038.893677,726.163940 
	C1037.313477,725.852478 1035.733398,725.541016 1033.968872,725.193237 
	C1034.067505,723.573730 1034.164429,721.982910 1034.283691,720.023743 
	C1037.393066,720.023743 1040.197266,719.929138 1042.992920,720.044312 
	C1048.220947,720.259644 1048.218872,720.310120 1047.125488,715.723816 
	C1042.949829,715.723816 1038.719604,715.723816 1034.362793,715.723816 
	C1034.362793,713.072327 1034.362793,710.706482 1034.362793,707.926208 
	C1039.318359,707.926208 1043.919800,707.926208 1048.921387,707.926208 
	C1048.816772,706.123047 1048.738159,704.766602 1048.640991,703.092346 
	C1042.606689,703.092346 1036.976440,703.078247 1031.346313,703.098633 
	C1028.757324,703.107971 1028.306519,704.245361 1028.408569,706.898743 
	C1028.675049,713.827881 1028.348145,720.783020 1028.157227,727.725037 
	C1028.086426,730.304626 1027.592773,732.950134 1031.481079,732.946472 
	C1036.801758,732.941467 1042.123169,733.014893 1047.442139,732.923950 
	C1048.246216,732.910156 1049.038208,732.187866 1049.835693,731.793213 
	C1049.239746,730.871033 1048.643799,729.948792 1047.137939,728.997803 
M853.984009,730.235107 
	C854.209778,731.217407 854.435547,732.199646 854.661377,733.181946 
	C856.142151,732.303406 858.394104,731.764282 858.958191,730.482422 
	C860.607666,726.733826 863.074219,725.374451 866.996948,725.980713 
	C868.458191,726.206665 869.991638,726.108887 871.478882,725.991089 
	C874.149597,725.779541 875.526245,726.616699 876.491394,729.452148 
	C877.102844,731.248596 879.707520,732.366577 881.418335,733.788818 
	C881.948914,733.313477 882.479431,732.838074 883.010010,732.362732 
	C878.999939,723.281311 875.042908,714.175476 870.900818,705.154663 
	C870.469116,704.214539 868.807434,703.105347 867.954956,703.274658 
	C866.844116,703.495361 865.587952,704.733215 865.058228,705.848694 
	C861.331421,713.696777 857.775269,721.625916 853.984009,730.235107 
M589.132812,705.085876 
	C583.777771,704.422302 578.432861,703.618591 573.057983,703.229980 
	C572.137390,703.163391 570.250977,704.847473 570.229065,705.756897 
	C570.014099,714.702209 570.099304,723.654785 570.099304,733.013245 
	C572.068481,732.823547 573.435364,732.691895 574.762817,732.564087 
	C574.960938,729.488342 575.127686,726.900269 575.298706,724.244812 
	C581.987366,723.489746 589.455322,725.713745 592.924011,717.811523 
	C595.035461,713.001343 593.857727,708.820923 589.132812,705.085876 
M963.125854,717.123474 
	C960.432495,716.399414 957.556641,716.033264 955.125916,714.793945 
	C953.982056,714.210754 953.230103,711.956482 953.206238,710.445068 
	C953.193604,709.644653 955.116211,708.130737 956.172668,708.124084 
	C959.388000,708.103760 962.606873,708.659729 966.312866,709.041748 
	C966.603943,708.444397 967.139893,707.344788 967.723877,706.146484 
	C962.747314,702.797974 957.517395,701.669556 952.604797,704.469177 
	C950.140625,705.873474 947.874390,709.219604 947.423706,711.996643 
	C947.127808,713.819885 949.936951,716.554077 951.914673,718.214355 
	C953.587952,719.619080 956.615540,719.548706 958.046021,721.069580 
	C959.833435,722.970032 965.216919,721.162720 964.058105,725.445679 
	C962.337952,725.911072 960.489502,725.918945 960.234497,726.560303 
	C958.622986,730.613159 955.642029,729.082336 953.027466,728.480225 
	C951.476318,728.123108 950.068787,727.142334 948.631287,726.458435 
	C946.536377,728.758606 946.526001,730.358765 949.530334,731.847839 
	C955.649719,734.880554 965.852478,734.009277 968.397644,729.985107 
	C970.758423,726.252258 968.586243,720.261047 963.125854,717.123474 
M472.088562,721.444397 
	C469.727203,716.204956 467.476685,710.910461 464.920746,705.767700 
	C464.336365,704.591858 462.670319,703.204834 461.553680,703.248108 
	C460.384583,703.293396 458.811035,704.717773 458.223297,705.931213 
	C455.505737,711.541565 453.030884,717.271362 450.548645,722.992981 
	C449.221405,726.052368 448.055481,729.181702 446.751526,732.442688 
	C451.836609,733.008606 451.836609,733.008606 454.769348,726.002747 
	C458.131256,726.002747 461.631500,726.212097 465.093262,725.937256 
	C467.917511,725.713074 469.495728,726.783508 470.132080,729.378723 
	C470.992706,732.888672 473.206482,733.640259 476.680573,732.575867 
	C475.282288,729.042969 473.903351,725.558899 472.088562,721.444397 
M995.365601,722.643066 
	C999.415649,721.930481 1003.465637,721.217957 1007.517029,720.510986 
	C1007.602600,716.993042 1007.602600,716.993042 1001.449158,716.984192 
	C995.693604,716.975891 993.553589,714.321411 994.615906,707.968506 
	C998.502380,707.968506 1002.492737,708.180298 1006.434998,707.838379 
	C1007.605896,707.736816 1008.641907,706.078979 1009.739746,705.134338 
	C1008.774780,704.455017 1007.827881,703.219788 1006.841980,703.187927 
	C1001.072876,703.001404 995.294739,703.096313 988.772705,703.096313 
	C988.772705,713.305420 988.772705,722.914368 988.772705,732.458130 
	C992.785706,733.548462 994.018311,732.223572 994.049255,728.943665 
	C994.070618,726.680664 994.596252,724.422363 995.365601,722.643066 
M776.399170,708.091309 
	C777.482483,708.450195 778.565796,708.809021 780.202271,709.351135 
	C780.202271,716.885681 780.202271,724.810486 780.202271,733.079285 
	C782.099609,732.888245 783.487976,732.748474 785.399536,732.556030 
	C785.399536,724.182617 785.399536,716.216736 785.399536,707.997925 
	C787.554382,707.997925 789.456970,708.324219 791.166748,707.890503 
	C792.439758,707.567566 793.463135,706.260742 794.597717,705.392151 
	C793.527039,704.613464 792.480225,703.203857 791.381531,703.162109 
	C785.725525,702.947388 780.055969,703.054138 774.391724,703.108887 
	C771.049622,703.141174 770.675842,705.015198 771.469177,707.791504 
	C773.037476,707.869385 774.355713,707.934875 776.399170,708.091309 
M714.057190,722.467651 
	C714.050415,724.628784 714.200195,726.804443 714.002380,728.947937 
	C713.654663,732.714417 715.247070,733.607422 719.166687,732.394775 
	C719.166687,724.319702 719.166687,716.266541 719.166687,707.991455 
	C721.602600,707.991455 723.494324,708.294312 725.222717,707.893372 
	C726.550232,707.585388 727.671997,706.390625 728.885254,705.590210 
	C727.702515,704.752319 726.545227,703.236328 725.332703,703.190674 
	C719.191589,702.959595 713.036011,703.101257 706.885742,703.145691 
	C706.420593,703.149048 705.957336,703.412659 705.119202,703.670166 
	C705.207886,705.008911 705.297668,706.363342 705.390808,707.769470 
	C708.433777,707.944153 711.023499,708.092834 714.058533,708.267029 
	C714.058533,712.905334 714.058533,717.193604 714.057190,722.467651 
M907.811768,500.996979 
	C905.252747,501.490143 902.693726,501.983337 900.134705,502.476501 
	C911.134155,506.071136 947.439148,505.766235 953.550293,502.376251 
	C938.198242,499.771423 923.444275,501.113068 907.811768,500.996979 
M500.995819,705.743835 
	C500.162384,704.860168 499.328949,703.976562 498.495483,703.092896 
	C497.678589,704.304321 496.180756,705.501282 496.154724,706.729553 
	C495.978455,715.039917 496.109009,723.356934 496.165802,731.671631 
	C496.167786,731.963623 496.436707,732.253784 496.759186,732.903259 
	C497.977875,732.823059 499.341492,732.733337 500.739044,732.641418 
	C501.074036,723.678406 503.554749,715.182068 500.995819,705.743835 
M848.525879,576.493469 
	C848.525879,576.493469 848.488220,576.504578 848.525879,576.493469 
z"/>
<path fill="#A7752B" opacity="1.000000" stroke="none" 
	d="
M1079.021606,430.785736 
	C1076.362183,430.854492 1073.702881,430.983185 1071.043457,430.983368 
	C991.626648,430.988922 912.209778,431.060486 832.793152,430.931335 
	C807.041626,430.889435 781.290466,430.346985 755.539917,429.976624 
	C734.633667,429.675934 713.728699,429.290161 692.594360,428.593811 
	C694.368591,427.234436 696.371582,426.223328 698.374573,425.212219 
	C700.533997,425.147430 702.692932,425.050690 704.852844,425.022675 
	C732.111694,424.669250 759.371216,424.360748 786.629517,423.967255 
	C805.065247,423.701172 823.498474,423.261414 841.934265,423.002472 
	C869.025879,422.621979 896.119141,422.358337 923.211060,421.998230 
	C944.641846,421.713348 966.072144,421.066376 987.501770,421.103638 
	C1018.425903,421.157440 1049.349976,421.625610 1080.272461,422.041870 
	C1091.545166,422.193604 1102.812988,422.703033 1114.298340,423.402405 
	C1112.458252,424.169678 1110.408081,424.907745 1108.346558,424.941193 
	C1099.895874,425.078339 1091.440918,424.934143 1082.988892,425.026245 
	C1077.598877,425.084961 1077.212402,425.754456 1079.021606,430.785736 
z"/>
<path fill="#A0722C" opacity="1.000000" stroke="none" 
	d="
M452.975861,368.178955 
	C464.340454,367.453949 475.695648,366.441437 487.071777,366.070251 
	C504.813171,365.491425 522.568298,365.124207 540.318420,365.091492 
	C554.075317,365.066162 567.831848,365.845642 581.591431,365.989166 
	C604.422729,366.227356 626.708618,362.132660 649.008667,357.685638 
	C663.788330,354.738312 678.808044,352.858032 693.792847,351.128998 
	C702.482361,350.126404 711.315430,350.369080 720.322388,350.392395 
	C719.520203,351.155487 718.442566,351.505249 717.446289,352.014160 
	C715.093811,353.215790 712.779968,354.493225 710.450562,355.739990 
	C711.972168,357.422394 713.493774,359.104767 715.015442,360.787109 
	C688.197205,360.599792 662.118958,366.070251 635.887939,370.703400 
	C622.809509,373.013428 609.457153,374.115082 596.178040,374.857910 
	C580.458862,375.737213 564.685059,375.899078 548.934998,375.894318 
	C532.686218,375.889435 516.438477,375.133728 500.188477,375.050476 
	C490.763214,375.002167 481.334503,375.631256 471.523621,375.535675 
	C471.711334,369.781708 469.777466,368.000519 464.644257,369.623932 
	C460.424896,370.958344 456.571350,371.058868 452.975861,368.178955 
z"/>
<path fill="#B68334" opacity="1.000000" stroke="none" 
	d="
M750.016235,352.211914 
	C762.585815,354.257690 775.144287,356.373993 787.727478,358.332031 
	C804.892944,361.002991 821.811584,366.134430 838.464111,363.720551 
	C840.674194,360.493530 842.533447,357.805511 844.358765,355.094635 
	C844.813049,354.419983 845.448608,353.693970 845.505554,352.953491 
	C845.850159,348.472015 848.721008,346.912994 853.276733,346.785614 
	C856.034241,320.787903 858.766602,295.027100 861.498901,269.266327 
	C861.856445,269.149323 862.213989,269.032349 862.571533,268.915344 
	C863.344482,271.985474 864.623901,275.027405 864.796570,278.130951 
	C865.341858,287.927948 865.390503,297.751404 865.795166,307.557861 
	C866.026123,313.154694 866.677124,318.733429 866.950867,324.329498 
	C867.178284,328.977783 866.918823,333.482666 870.445923,337.487335 
	C872.187683,339.464844 872.329163,342.851807 873.297119,345.926331 
	C872.532410,345.506775 871.863525,345.139740 871.194580,344.772736 
	C878.191589,350.064026 879.584534,357.533630 879.019409,365.683746 
	C880.980408,365.451630 882.580017,365.262299 884.639160,365.448486 
	C884.063232,366.861176 883.170959,368.520386 881.960938,368.798950 
	C879.806091,369.295074 877.458984,368.955902 875.192261,368.966125 
	C875.276550,367.671387 874.840698,365.839661 875.531189,365.170868 
	C879.404602,361.419464 875.668091,359.827881 873.851135,357.322418 
	C870.744446,353.038391 863.494141,351.524506 864.327332,343.797150 
	C863.472778,345.001831 862.618225,346.206482 861.596802,347.646423 
	C860.934814,346.053741 860.297729,344.521027 859.133850,341.720917 
	C859.370239,350.502594 855.227661,355.609985 849.621643,359.950287 
	C848.529846,360.795563 847.187439,362.461090 847.330566,363.571808 
	C848.269043,370.856689 842.645203,370.874542 838.537231,370.792816 
	C827.196655,370.567322 815.843323,369.807495 804.549805,368.700256 
	C791.700928,367.440613 778.909668,365.589081 766.097778,363.960175 
	C764.334412,363.735962 762.596436,363.312500 760.315674,362.612000 
	C757.948181,359.333008 755.960144,360.873627 753.984680,362.045105 
	C751.609070,361.996521 749.233459,361.947937 746.258423,361.691895 
	C745.441589,361.299194 745.202759,361.147583 744.942627,361.029572 
	C744.942627,361.029572 744.992615,360.999725 745.055176,360.683411 
	C746.750610,357.648682 748.383423,354.930298 750.016235,352.211914 
z"/>
<path fill="#A7752B" opacity="1.000000" stroke="none" 
	d="
M875.139709,369.342651 
	C877.458984,368.955902 879.806091,369.295074 881.960938,368.798950 
	C883.170959,368.520386 884.063232,366.861176 885.044067,365.509766 
	C901.307739,364.149078 917.684448,361.726105 933.929199,362.414642 
	C953.000793,363.223083 971.103760,369.837067 988.841614,376.914459 
	C1006.797974,384.079010 1024.847656,391.009430 1042.843018,398.076477 
	C1044.609375,398.770142 1046.282104,399.702240 1047.998291,400.523682 
	C1047.861084,401.034851 1047.723755,401.546051 1047.586548,402.057220 
	C1045.150024,401.400513 1042.692749,400.812256 1040.280396,400.076385 
	C1017.878052,393.242767 995.590027,386.004456 973.047607,379.671173 
	C959.025269,375.731598 944.822144,372.030426 930.037598,371.948578 
	C912.643066,371.852295 895.248413,371.742432 877.855469,371.514709 
	C876.925049,371.502533 876.009583,370.344025 875.139709,369.342651 
z"/>
<path fill="#B37F30" opacity="1.000000" stroke="none" 
	d="
M452.554474,368.129211 
	C456.571350,371.058868 460.424896,370.958344 464.644257,369.623932 
	C469.777466,368.000519 471.711334,369.781708 471.059326,375.458130 
	C470.239227,375.856873 469.499695,375.913300 468.202026,375.925049 
	C467.087830,376.185974 466.531769,376.491608 465.975708,376.797211 
	C462.313019,376.856659 458.650330,376.916138 454.336761,377.109558 
	C453.442017,377.411713 453.213562,377.598755 453.000488,377.804626 
	C435.493744,379.515015 417.992767,381.287109 400.478302,382.914490 
	C388.349854,384.041412 376.196625,384.900757 364.065704,386.003143 
	C350.472595,387.238434 336.898743,388.687256 323.303833,389.900940 
	C314.113068,390.721466 304.899841,391.289398 295.697632,391.983246 
	C289.790710,392.428619 283.885559,392.897522 277.979614,393.355865 
	C277.851044,392.888733 277.722473,392.421570 277.593903,391.954437 
	C279.360107,391.304260 281.081665,390.277740 282.899384,390.062286 
	C300.674255,387.955536 318.500702,386.252747 336.242035,383.903046 
	C356.372467,381.236969 376.404266,377.830597 396.528412,375.112244 
	C413.597168,372.806671 430.737488,371.032379 447.842133,368.989258 
	C449.288055,368.816589 450.703491,368.388763 452.554474,368.129211 
z"/>
<path fill="#080808" opacity="1.000000" stroke="none" 
	d="
M832.739685,583.882812 
	C832.836914,585.849915 832.509766,587.509033 832.805786,589.048279 
	C834.228333,596.446411 834.567200,603.750549 831.679688,610.909973 
	C836.962402,620.015076 833.592957,628.974304 830.501221,637.569824 
	C834.069153,638.518616 836.890625,639.268921 839.712158,640.019226 
	C839.625732,640.511780 839.539307,641.004272 839.452881,641.496826 
	C832.689209,642.181885 825.957703,644.236633 818.283752,641.336731 
	C826.450012,639.792236 824.727783,633.939392 825.050659,628.903809 
	C825.335022,624.469360 826.034119,620.062256 826.501892,615.638000 
	C826.622437,614.498230 826.633972,613.335388 826.573181,612.189697 
	C826.153076,604.272644 825.373474,596.357849 825.359985,588.441223 
	C825.348755,581.867859 825.671631,575.496338 818.365295,571.513062 
	C819.567871,570.863831 820.239319,570.179810 820.893677,570.195679 
	C833.184204,570.494080 845.487305,570.643250 857.751099,571.409790 
	C860.666870,571.592041 863.873474,573.411682 866.151245,575.392456 
	C867.780945,576.809631 868.218384,579.710449 868.940979,582.026367 
	C869.668579,584.358459 870.392029,586.764526 870.561829,589.177307 
	C870.728271,591.541687 871.043762,594.615845 869.799011,596.214966 
	C866.878784,599.966675 862.864319,602.848328 859.725037,606.458008 
	C858.667969,607.673462 858.100159,610.384888 858.721985,611.784851 
	C860.436035,615.643860 859.250305,618.107727 855.441956,620.926758 
	C851.822693,616.492310 848.272766,612.142822 843.962769,606.862061 
	C847.832214,606.066772 850.489441,605.458008 853.170410,604.984009 
	C857.357239,604.243713 860.318359,601.904907 861.307312,597.837646 
	C862.551086,592.722168 863.275513,587.480286 864.049011,583.250305 
	C860.689636,581.215515 857.741638,579.431274 854.794983,577.644836 
	C848.305481,573.710571 841.158325,574.483704 834.375977,575.778931 
	C830.645996,576.491333 832.133911,580.634338 832.739685,583.882812 
z"/>
<path fill="#080808" opacity="1.000000" stroke="none" 
	d="
M1196.889526,589.535828 
	C1197.251709,595.009888 1196.370483,599.364563 1193.473999,604.010376 
	C1191.708862,606.841431 1193.482300,612.093933 1194.181519,616.170471 
	C1194.651733,618.911804 1196.460205,621.432007 1196.876953,624.171692 
	C1197.372070,627.427429 1196.936523,630.815125 1197.048340,634.140808 
	C1197.251831,640.197388 1194.222412,643.195251 1187.991089,642.760498 
	C1185.862183,642.612061 1183.760864,642.068420 1181.339600,641.652588 
	C1183.167114,639.625732 1185.337891,638.158508 1186.047607,636.169922 
	C1186.775635,634.129578 1186.013428,631.579468 1186.010254,629.252380 
	C1185.989014,613.272888 1185.878540,597.291992 1186.065430,581.314697 
	C1186.121582,576.522888 1184.330444,574.745544 1179.601440,574.951721 
	C1172.732422,575.251099 1166.685669,576.593872 1163.742676,583.822815 
	C1163.359863,584.762695 1162.364746,585.453247 1160.342163,585.965393 
	C1160.715576,581.333862 1160.913818,576.675232 1161.620361,572.095093 
	C1161.750977,571.247620 1163.929688,570.136414 1165.170288,570.127258 
	C1182.646362,569.998596 1200.123657,570.040405 1217.600586,570.038513 
	C1220.430054,570.038208 1221.692871,571.414429 1222.058350,574.261841 
	C1222.366943,576.665344 1223.560913,578.945129 1223.992310,581.346252 
	C1224.317627,583.156860 1224.056641,585.072754 1224.056641,586.668396 
	C1219.940796,582.868958 1216.899170,578.152710 1212.722534,576.699829 
	C1207.761963,574.974304 1201.677002,575.215881 1196.352905,576.155396 
	C1190.967529,577.105591 1190.457275,582.097351 1194.631348,585.986328 
	C1195.545654,586.838318 1196.116333,588.059143 1196.889526,589.535828 
z"/>
<path fill="#9F6E22" opacity="1.000000" stroke="none" 
	d="
M1021.005127,453.000183 
	C1038.494873,453.009491 1055.487061,452.897308 1072.476440,453.064331 
	C1087.253784,453.209534 1102.028442,453.650146 1116.802734,454.024963 
	C1118.165161,454.059509 1119.515869,454.562958 1120.797363,455.933563 
	C1115.956421,456.290314 1111.120117,456.866150 1106.273926,456.965851 
	C1085.505005,457.393036 1064.732178,457.632324 1043.962891,458.040466 
	C1035.178345,458.213104 1026.396606,458.940033 1017.617188,458.879333 
	C996.842712,458.735718 976.070190,458.292511 955.297546,457.930420 
	C936.357666,457.600311 917.417297,457.280762 898.480347,456.822815 
	C892.088867,456.668243 885.707214,456.103851 879.238098,455.012604 
	C880.463562,454.747986 881.678711,454.340759 882.916809,454.251190 
	C884.906860,454.107300 886.912109,454.171478 888.910889,454.150818 
	C926.013916,453.767334 963.116882,453.374115 1000.220154,453.010712 
	C1006.981628,452.944458 1013.744263,453.000427 1021.005127,453.000183 
z"/>
<path fill="#B37F30" opacity="1.000000" stroke="none" 
	d="
M1079.482788,430.847107 
	C1077.212402,425.754456 1077.598877,425.084961 1082.988892,425.026245 
	C1091.440918,424.934143 1099.895874,425.078339 1108.346558,424.941193 
	C1110.408081,424.907745 1112.458252,424.169678 1114.762207,423.478760 
	C1136.111206,423.472839 1157.212280,423.694305 1178.311646,424.030762 
	C1194.247314,424.284882 1210.180420,424.685944 1226.749268,425.342468 
	C1228.628784,426.720215 1229.873779,427.777161 1231.118652,428.834106 
	C1226.128174,428.881470 1221.137207,428.907227 1216.147095,428.979919 
	C1194.733032,429.291992 1173.319214,429.617889 1151.106934,429.703369 
	C1144.903198,429.136536 1139.501831,428.664398 1134.091431,428.514099 
	C1128.959106,428.371521 1123.816040,428.659882 1118.680176,428.586395 
	C1113.370483,428.510437 1108.056519,428.000519 1102.760010,428.168732 
	C1101.116821,428.220917 1099.524414,429.867310 1097.908691,430.783813 
	C1091.920410,430.825378 1085.932251,430.866943 1079.482788,430.847107 
z"/>
<path fill="#A7752B" opacity="1.000000" stroke="none" 
	d="
M857.964111,478.164124 
	C858.293396,478.115875 858.622375,478.028198 858.952087,478.024963 
	C892.867004,477.692139 926.781555,477.254181 960.697266,477.098541 
	C972.798096,477.042999 984.905396,477.585297 997.002319,478.048553 
	C1000.142639,478.168793 1003.255005,479.019257 1007.583984,479.732697 
	C1006.095886,480.607666 1005.786194,480.944672 1005.464417,480.956512 
	C995.533569,481.323120 985.603943,481.783997 975.669250,481.971252 
	C955.077515,482.359406 934.483215,482.804199 913.889404,482.835175 
	C897.625305,482.859619 881.359802,482.327606 865.096680,481.961121 
	C863.327637,481.921265 861.570740,481.340240 859.239868,480.769257 
	C858.435791,479.740234 858.199951,478.952148 857.964111,478.164124 
z"/>
<path fill="#9F6E22" opacity="1.000000" stroke="none" 
	d="
M298.003784,715.166382 
	C299.090027,715.115173 300.176239,715.064026 301.932129,715.194397 
	C303.700653,715.311829 304.799530,715.247742 305.898376,715.183594 
	C306.226776,715.129822 306.554749,715.031860 306.883667,715.028503 
	C340.126587,714.686157 373.369385,714.327087 406.613068,714.096741 
	C408.052551,714.086731 409.500244,715.265747 410.944092,715.890930 
	C409.445709,716.612854 407.948761,717.961487 406.448761,717.964905 
	C370.596130,718.047424 334.743195,717.985718 298.415283,717.540771 
	C297.961456,716.476257 297.982635,715.821289 298.003784,715.166382 
z"/>
<path fill="#A7752B" opacity="1.000000" stroke="none" 
	d="
M1235.071533,719.830444 
	C1233.148682,720.207886 1231.226562,720.909607 1229.302734,720.914490 
	C1197.028809,720.995728 1164.754761,721.000549 1132.480713,720.979370 
	C1130.368286,720.978027 1127.296875,721.861938 1128.187500,718.020874 
	C1163.896484,718.020874 1199.528687,718.020874 1235.471313,718.302734 
	C1235.544922,718.999939 1235.308228,719.415222 1235.071533,719.830444 
z"/>
<path fill="#A77832" opacity="1.000000" stroke="none" 
	d="
M813.015625,715.239075 
	C813.057312,711.728271 812.912048,708.665710 813.251831,705.657898 
	C813.356384,704.731934 814.815491,703.201965 815.603394,703.233154 
	C820.686279,703.434753 826.070374,703.110962 830.707581,704.770447 
	C833.401123,705.734314 836.359253,709.984924 836.529175,712.911560 
	C836.722778,716.245483 833.944702,719.752014 831.959595,724.334656 
	C832.966797,725.894592 834.974854,729.004578 837.128052,732.339417 
	C833.706055,733.743286 831.663696,732.797241 829.957886,729.931885 
	C827.402527,725.639709 823.335999,724.105469 818.248291,723.937805 
	C818.100891,727.073853 817.977844,729.690613 817.836487,732.697632 
	C816.329895,732.768921 814.955078,732.833984 813.015442,732.925781 
	C813.015442,726.941040 813.015442,721.324707 813.015625,715.239075 
M830.093384,710.262512 
	C826.262695,709.233948 822.431946,708.205444 817.833008,706.970642 
	C818.491272,711.986267 818.928894,715.320923 819.412781,719.007996 
	C821.737915,719.007996 823.865417,719.121765 825.976624,718.984314 
	C830.404907,718.695923 832.380127,715.119324 830.093384,710.262512 
z"/>
<path fill="#A0722C" opacity="1.000000" stroke="none" 
	d="
M926.956543,708.367798 
	C926.958252,716.643066 926.958252,724.459167 926.958252,732.382446 
	C922.166443,734.210388 920.213806,730.951355 918.126831,728.029846 
	C914.749634,723.302002 911.405762,718.550476 907.003540,714.212524 
	C907.003540,720.276550 907.003540,726.340576 907.003540,732.708252 
	C905.294617,732.799683 904.034607,732.867126 902.376831,732.955872 
	C902.376831,722.991211 902.376831,713.247131 902.376831,702.394470 
	C911.912964,706.970093 914.754517,716.766296 922.084473,724.184265 
	C922.084473,718.248413 921.873169,713.224792 922.200012,708.236511 
	C922.313049,706.510132 923.762695,704.871277 924.601746,703.192444 
	C925.386108,704.764526 926.170471,706.336609 926.956543,708.367798 
z"/>
<path fill="#A77832" opacity="1.000000" stroke="none" 
	d="
M545.302002,721.148438 
	C544.696716,722.453369 543.790588,723.815002 544.155029,724.515930 
	C545.503296,727.108826 547.271118,729.483582 548.998962,732.120056 
	C546.053345,733.970398 544.025452,732.863220 542.279724,730.534058 
	C542.183899,730.406189 542.134827,730.240234 542.077393,730.086975 
	C540.447998,725.741272 537.342590,724.116272 532.817749,724.979980 
	C532.116760,725.113770 531.354187,724.925049 530.153992,724.860352 
	C530.153992,727.116089 530.153992,729.669556 530.153992,732.232300 
	C525.569702,734.249573 524.119751,731.395752 524.164368,728.416260 
	C524.287598,720.186951 524.993896,711.966431 525.533875,702.632935 
	C531.148926,703.177002 537.036133,702.916748 542.399597,704.467651 
	C549.879944,706.630493 551.370972,716.026550 545.302002,721.148438 
M537.559753,719.148743 
	C542.248291,719.207520 543.375183,716.469666 543.051880,712.378113 
	C542.726624,708.262512 540.009094,707.867615 536.783142,707.980591 
	C534.690918,708.053894 532.594116,707.994446 530.276367,707.994446 
	C530.276367,712.213013 530.276367,715.899963 530.276367,720.044128 
	C532.677734,719.887878 534.760376,719.752319 537.559753,719.148743 
z"/>
<path fill="#A3732D" opacity="1.000000" stroke="none" 
	d="
M676.790527,724.671204 
	C674.299072,724.204651 672.008911,724.093262 669.207703,723.957031 
	C669.046082,727.015015 668.901550,729.748779 668.745117,732.708740 
	C666.883911,732.708740 665.301941,732.708740 663.538635,732.708740 
	C663.538635,723.105042 663.538635,713.614258 663.538635,703.340088 
	C670.850525,703.684448 678.297607,700.565430 684.467773,706.967224 
	C687.765198,710.388428 688.819580,716.504761 685.371399,719.707825 
	C681.561096,723.247314 683.001587,725.662720 685.274475,728.699646 
	C686.131897,729.845154 686.810608,731.124329 687.711731,732.568542 
	C680.653625,734.342957 680.008728,728.073547 676.790527,724.671204 
M677.109253,707.993958 
	C674.530762,707.993958 671.952332,707.993958 669.339355,707.993958 
	C669.339355,712.001892 669.339355,715.353516 669.339355,718.981262 
	C672.028503,718.981262 674.480652,719.485901 676.575012,718.836487 
	C678.590576,718.211609 681.273560,716.723389 681.813721,715.025879 
	C682.743286,712.104736 682.470825,708.592896 677.109253,707.993958 
z"/>
<path fill="#A77832" opacity="1.000000" stroke="none" 
	d="
M1091.842896,732.972900 
	C1089.161011,731.529663 1085.150269,730.367676 1084.848267,728.579407 
	C1083.677856,721.647827 1079.114624,724.569092 1075.205688,724.127380 
	C1075.070923,727.101379 1074.952759,729.708130 1074.755371,734.059448 
	C1072.635010,732.472595 1070.984741,731.737183 1070.173340,730.466187 
	C1069.567383,729.516907 1070.040039,727.876221 1070.039795,726.543457 
	C1070.038452,718.917358 1070.039185,711.291260 1070.039185,702.694153 
	C1076.122192,703.218201 1081.729004,703.247009 1087.140625,704.289185 
	C1093.107544,705.438232 1095.792725,713.705811 1091.503296,719.520264 
	C1088.182617,724.021362 1090.028076,726.684753 1092.400757,730.076965 
	C1092.833252,730.695068 1092.303467,731.986145 1091.842896,732.972900 
M1075.026367,716.283875 
	C1076.164429,721.652832 1080.335693,718.338928 1083.043701,718.913025 
	C1086.700317,719.688171 1089.023560,716.937256 1088.650757,713.917786 
	C1088.388672,711.794434 1085.888794,709.150513 1083.755615,708.267883 
	C1081.386230,707.287476 1078.298462,708.043518 1075.018066,708.043518 
	C1075.018066,710.792603 1075.018066,713.073120 1075.026367,716.283875 
z"/>
<path fill="#A4742E" opacity="1.000000" stroke="none" 
	d="
M625.540649,703.258789 
	C630.801514,703.070801 635.171204,703.946045 639.070862,707.467896 
	C644.450623,712.326294 643.688354,718.269043 642.315674,723.962036 
	C640.646118,730.886047 634.479309,732.924744 628.303589,733.811523 
	C623.101135,734.558533 615.941528,730.137146 614.086975,725.008545 
	C611.024658,716.539490 612.972717,706.149597 625.540649,703.258789 
M638.015625,721.021118 
	C638.023560,719.359253 638.185181,717.681152 638.010803,716.038635 
	C637.477661,711.018250 631.382874,706.579163 626.677734,707.681396 
	C620.585083,709.108643 617.976562,712.499756 617.984253,718.982849 
	C617.990540,724.294556 620.603271,727.594971 625.830383,728.894348 
	C630.420593,730.035400 635.436951,727.122437 638.015625,721.021118 
z"/>
<path fill="#A3732D" opacity="1.000000" stroke="none" 
	d="
M1047.592896,729.012207 
	C1048.643799,729.948792 1049.239746,730.871033 1049.835693,731.793213 
	C1049.038208,732.187866 1048.246216,732.910156 1047.442139,732.923950 
	C1042.123169,733.014893 1036.801758,732.941467 1031.481079,732.946472 
	C1027.592773,732.950134 1028.086426,730.304626 1028.157227,727.725037 
	C1028.348145,720.783020 1028.675049,713.827881 1028.408569,706.898743 
	C1028.306519,704.245361 1028.757324,703.107971 1031.346313,703.098633 
	C1036.976440,703.078247 1042.606689,703.092346 1048.640991,703.092346 
	C1048.738159,704.766602 1048.816772,706.123047 1048.921387,707.926208 
	C1043.919800,707.926208 1039.318359,707.926208 1034.362793,707.926208 
	C1034.362793,710.706482 1034.362793,713.072327 1034.362793,715.723816 
	C1038.719604,715.723816 1042.949829,715.723816 1047.125488,715.723816 
	C1048.218872,720.310120 1048.220947,720.259644 1042.992920,720.044312 
	C1040.197266,719.929138 1037.393066,720.023743 1034.283691,720.023743 
	C1034.164429,721.982910 1034.067505,723.573730 1033.968872,725.193237 
	C1035.733398,725.541016 1037.313477,725.852478 1038.893677,726.163940 
	C1038.886963,726.581055 1038.880249,726.998169 1038.873535,727.415344 
	C1037.642090,727.734985 1036.410645,728.054626 1035.179321,728.374329 
	C1035.212646,728.582153 1035.245850,728.789978 1035.279175,728.997803 
	C1039.232056,728.997803 1043.185059,728.997803 1047.592896,729.012207 
z"/>
<path fill="#A4742E" opacity="1.000000" stroke="none" 
	d="
M854.074280,729.882141 
	C857.775269,721.625916 861.331421,713.696777 865.058228,705.848694 
	C865.587952,704.733215 866.844116,703.495361 867.954956,703.274658 
	C868.807434,703.105347 870.469116,704.214539 870.900818,705.154663 
	C875.042908,714.175476 878.999939,723.281311 883.010010,732.362732 
	C882.479431,732.838074 881.948914,733.313477 881.418335,733.788818 
	C879.707520,732.366577 877.102844,731.248596 876.491394,729.452148 
	C875.526245,726.616699 874.149597,725.779541 871.478882,725.991089 
	C869.991638,726.108887 868.458191,726.206665 866.996948,725.980713 
	C863.074219,725.374451 860.607666,726.733826 858.958191,730.482422 
	C858.394104,731.764282 856.142151,732.303406 854.661377,733.181946 
	C854.435547,732.199646 854.209778,731.217407 854.074280,729.882141 
M867.829041,716.992493 
	C866.094727,718.138855 864.360474,719.285217 862.626160,720.431580 
	C862.874695,720.866089 863.123169,721.300598 863.371704,721.735107 
	C866.241150,721.735107 869.110596,721.735107 873.553101,721.735107 
	C871.176453,719.539978 869.848572,718.313538 867.829041,716.992493 
z"/>
<path fill="#A3732D" opacity="1.000000" stroke="none" 
	d="
M589.480896,705.268250 
	C593.857727,708.820923 595.035461,713.001343 592.924011,717.811523 
	C589.455322,725.713745 581.987366,723.489746 575.298706,724.244812 
	C575.127686,726.900269 574.960938,729.488342 574.762817,732.564087 
	C573.435364,732.691895 572.068481,732.823547 570.099304,733.013245 
	C570.099304,723.654785 570.014099,714.702209 570.229065,705.756897 
	C570.250977,704.847473 572.137390,703.163391 573.057983,703.229980 
	C578.432861,703.618591 583.777771,704.422302 589.480896,705.268250 
M586.415100,708.929749 
	C582.791931,708.517029 579.168762,708.104309 575.229492,707.655640 
	C575.117981,710.180359 575.016846,711.791016 574.983765,713.403137 
	C574.947998,715.147827 574.975647,716.893799 574.975647,718.542236 
	C587.646667,720.107300 590.133789,718.114990 586.415100,708.929749 
z"/>
<path fill="#A0722C" opacity="1.000000" stroke="none" 
	d="
M963.486450,717.278870 
	C968.586243,720.261047 970.758423,726.252258 968.397644,729.985107 
	C965.852478,734.009277 955.649719,734.880554 949.530334,731.847839 
	C946.526001,730.358765 946.536377,728.758606 948.631287,726.458435 
	C950.068787,727.142334 951.476318,728.123108 953.027466,728.480225 
	C955.642029,729.082336 958.622986,730.613159 960.234497,726.560303 
	C960.489502,725.918945 962.337952,725.911072 964.058105,725.445679 
	C965.216919,721.162720 959.833435,722.970032 958.046021,721.069580 
	C956.615540,719.548706 953.587952,719.619080 951.914673,718.214355 
	C949.936951,716.554077 947.127808,713.819885 947.423706,711.996643 
	C947.874390,709.219604 950.140625,705.873474 952.604797,704.469177 
	C957.517395,701.669556 962.747314,702.797974 967.723877,706.146484 
	C967.139893,707.344788 966.603943,708.444397 966.312866,709.041748 
	C962.606873,708.659729 959.388000,708.103760 956.172668,708.124084 
	C955.116211,708.130737 953.193604,709.644653 953.206238,710.445068 
	C953.230103,711.956482 953.982056,714.210754 955.125916,714.793945 
	C957.556641,716.033264 960.432495,716.399414 963.486450,717.278870 
z"/>
<path fill="#A4742E" opacity="1.000000" stroke="none" 
	d="
M472.306488,721.759644 
	C473.903351,725.558899 475.282288,729.042969 476.680573,732.575867 
	C473.206482,733.640259 470.992706,732.888672 470.132080,729.378723 
	C469.495728,726.783508 467.917511,725.713074 465.093262,725.937256 
	C461.631500,726.212097 458.131256,726.002747 454.769348,726.002747 
	C451.836609,733.008606 451.836609,733.008606 446.751526,732.442688 
	C448.055481,729.181702 449.221405,726.052368 450.548645,722.992981 
	C453.030884,717.271362 455.505737,711.541565 458.223297,705.931213 
	C458.811035,704.717773 460.384583,703.293396 461.553680,703.248108 
	C462.670319,703.204834 464.336365,704.591858 464.920746,705.767700 
	C467.476685,710.910461 469.727203,716.204956 472.306488,721.759644 
M465.144470,718.463074 
	C464.054016,715.788208 462.963593,713.113342 461.557465,709.664062 
	C459.737854,714.153687 458.274750,717.763672 456.570312,721.969177 
	C459.608887,721.969177 461.773071,722.212463 463.825104,721.839172 
	C464.557526,721.705994 465.018402,720.079773 465.144470,718.463074 
z"/>
<path fill="#AB7A31" opacity="1.000000" stroke="none" 
	d="
M749.594482,352.129791 
	C748.383423,354.930298 746.750610,357.648682 745.041504,360.709045 
	C741.959351,361.018433 738.953430,360.985870 735.611511,360.703003 
	C732.200684,358.183441 723.895264,358.369598 719.983643,360.795410 
	C718.601562,360.833954 717.219482,360.872467 715.426392,360.849060 
	C713.493774,359.104767 711.972168,357.422394 710.450562,355.739990 
	C712.779968,354.493225 715.093811,353.215790 717.446289,352.014160 
	C718.442566,351.505249 719.520203,351.155487 720.786987,350.464172 
	C730.399658,350.812531 739.786194,351.430115 749.594482,352.129791 
z"/>
<path fill="#A4742E" opacity="1.000000" stroke="none" 
	d="
M995.131104,722.402527 
	C994.596252,724.422363 994.070618,726.680664 994.049255,728.943665 
	C994.018311,732.223572 992.785706,733.548462 988.772705,732.458130 
	C988.772705,722.914368 988.772705,713.305420 988.772705,703.096313 
	C995.294739,703.096313 1001.072876,703.001404 1006.841980,703.187927 
	C1007.827881,703.219788 1008.774780,704.455017 1009.739746,705.134277 
	C1008.641907,706.078979 1007.605896,707.736816 1006.434998,707.838379 
	C1002.492737,708.180298 998.502380,707.968506 994.615906,707.968506 
	C993.553589,714.321411 995.693604,716.975891 1001.449158,716.984192 
	C1007.602600,716.993042 1007.602600,716.993042 1007.516357,720.508179 
	C1003.465637,721.217957 999.415649,721.930481 995.131104,722.402527 
z"/>
<path fill="#A4742E" opacity="1.000000" stroke="none" 
	d="
M776.036499,708.045837 
	C774.355713,707.934875 773.037476,707.869385 771.469177,707.791504 
	C770.675842,705.015198 771.049622,703.141174 774.391724,703.108887 
	C780.055969,703.054138 785.725525,702.947388 791.381531,703.162109 
	C792.480225,703.203857 793.527039,704.613464 794.597717,705.392151 
	C793.463135,706.260742 792.439758,707.567566 791.166748,707.890503 
	C789.456970,708.324219 787.554382,707.997925 785.399536,707.997925 
	C785.399536,716.216736 785.399536,724.182617 785.399536,732.556030 
	C783.487976,732.748474 782.099609,732.888245 780.202271,733.079285 
	C780.202271,724.810486 780.202271,716.885681 780.202271,709.351135 
	C778.565796,708.809021 777.482483,708.450195 776.036499,708.045837 
z"/>
<path fill="#A3732D" opacity="1.000000" stroke="none" 
	d="
M714.057861,721.974792 
	C714.058533,717.193604 714.058533,712.905334 714.058533,708.267029 
	C711.023499,708.092834 708.433777,707.944153 705.390808,707.769470 
	C705.297668,706.363342 705.207886,705.008911 705.119202,703.670166 
	C705.957336,703.412659 706.420593,703.149048 706.885742,703.145691 
	C713.036011,703.101257 719.191589,702.959595 725.332703,703.190674 
	C726.545227,703.236328 727.702515,704.752319 728.885254,705.590210 
	C727.671997,706.390625 726.550232,707.585388 725.222717,707.893372 
	C723.494324,708.294312 721.602600,707.991455 719.166687,707.991455 
	C719.166687,716.266541 719.166687,724.319702 719.166687,732.394775 
	C715.247070,733.607422 713.654663,732.714417 714.002380,728.947937 
	C714.200195,726.804443 714.050415,724.628784 714.057861,721.974792 
z"/>
<path fill="#AB7A31" opacity="1.000000" stroke="none" 
	d="
M908.281006,500.997742 
	C923.444275,501.113068 938.198242,499.771423 953.550293,502.376251 
	C947.439148,505.766235 911.134155,506.071136 900.134705,502.476501 
	C902.693726,501.983337 905.252747,501.490143 908.281006,500.997742 
z"/>
<path fill="#A4742E" opacity="1.000000" stroke="none" 
	d="
M501.000244,706.182373 
	C503.554749,715.182068 501.074036,723.678406 500.739044,732.641418 
	C499.341492,732.733337 497.977875,732.823059 496.759186,732.903259 
	C496.436707,732.253784 496.167786,731.963623 496.165802,731.671631 
	C496.109009,723.356934 495.978455,715.039917 496.154724,706.729553 
	C496.180756,705.501282 497.678589,704.304321 498.495483,703.092896 
	C499.328949,703.976562 500.162384,704.860168 501.000244,706.182373 
z"/>
<path fill="#A7752B" opacity="1.000000" stroke="none" 
	d="
M1098.307251,430.861267 
	C1099.524414,429.867310 1101.116821,428.220917 1102.760010,428.168732 
	C1108.056519,428.000519 1113.370483,428.510437 1118.680176,428.586395 
	C1123.816040,428.659882 1128.959106,428.371521 1134.091431,428.514099 
	C1139.501831,428.664398 1144.903198,429.136536 1150.639893,429.643707 
	C1133.549316,430.192505 1116.127563,430.565613 1098.307251,430.861267 
z"/>
<path fill="#AC8A46" opacity="1.000000" stroke="none" 
	d="
M697.967346,425.153625 
	C696.371582,426.223328 694.368591,427.234436 692.124207,428.514313 
	C682.665710,428.581757 673.317688,430.298218 664.290405,426.436798 
	C675.380310,425.989502 686.470215,425.542236 697.967346,425.153625 
z"/>
<path fill="#AC8A46" opacity="1.000000" stroke="none" 
	d="
M1231.420776,428.895447 
	C1229.873779,427.777161 1228.628784,426.720215 1227.216919,425.409912 
	C1237.965942,425.559448 1248.881836,425.962311 1259.797852,426.365173 
	C1254.079468,430.034149 1247.884033,428.935364 1241.831543,428.851837 
	C1239.563232,428.820526 1237.301514,428.315796 1234.388672,428.152435 
	C1233.464233,428.448669 1233.200439,428.636810 1232.948975,428.842377 
	C1232.540283,428.880524 1232.131592,428.918671 1231.420776,428.895447 
z"/>
<path fill="#AC8A46" opacity="1.000000" stroke="none" 
	d="
M1235.516602,719.887695 
	C1235.308228,719.415222 1235.544922,718.999939 1235.902832,718.377686 
	C1244.898804,718.170776 1253.773804,718.170776 1262.648682,718.170776 
	C1253.911133,722.641357 1244.881104,720.123047 1235.516602,719.887695 
z"/>
<path fill="#AC8A46" opacity="1.000000" stroke="none" 
	d="
M297.535767,715.116699 
	C297.982635,715.821289 297.961456,716.476257 297.950500,717.458740 
	C290.474152,717.786255 282.987640,717.786255 275.501129,717.786255 
	C275.477325,716.879883 275.453552,715.973450 275.429779,715.067078 
	C282.642426,715.067078 289.855103,715.067078 297.535767,715.116699 
z"/>
<path fill="#AC8A46" opacity="1.000000" stroke="none" 
	d="
M857.502502,478.105621 
	C858.199951,478.952148 858.435791,479.740234 858.814636,480.697266 
	C852.405945,480.866211 845.854187,480.866211 839.302429,480.866211 
	C844.833801,476.582153 851.092041,478.501068 857.502502,478.105621 
z"/>
<path fill="#A0722C" opacity="1.000000" stroke="none" 
	d="
M720.445923,360.869629 
	C723.895264,358.369598 732.200684,358.183441 735.165161,360.643433 
	C730.339233,360.870697 725.623779,360.907257 720.445923,360.869629 
z"/>
<path fill="#AB7A31" opacity="1.000000" stroke="none" 
	d="
M754.207031,362.375366 
	C755.960144,360.873627 757.948181,359.333008 759.899841,362.521484 
	C758.153198,362.768677 756.291321,362.737152 754.207031,362.375366 
z"/>
<path fill="#A0722C" opacity="1.000000" stroke="none" 
	d="
M466.277710,376.865234 
	C466.531769,376.491608 467.087830,376.185974 467.833801,375.973297 
	C467.542389,376.355255 467.061066,376.644257 466.277710,376.865234 
z"/>
<path fill="#AC8A46" opacity="1.000000" stroke="none" 
	d="
M305.518158,715.132690 
	C304.799530,715.247742 303.700653,715.311829 302.333862,715.273315 
	C303.089905,715.141052 304.113922,715.111450 305.518158,715.132690 
z"/>
<path fill="#B37F30" opacity="1.000000" stroke="none" 
	d="
M1233.223145,428.863708 
	C1233.200439,428.636810 1233.464233,428.448669 1233.953613,428.161407 
	C1233.943604,428.324890 1233.720459,428.604950 1233.223145,428.863708 
z"/>
<path fill="#AB7A31" opacity="1.000000" stroke="none" 
	d="
M745.029419,361.259827 
	C745.202759,361.147583 745.441589,361.299194 745.817505,361.626221 
	C745.976013,361.768036 745.486206,361.814301 745.486206,361.814301 
	C745.486206,361.814301 745.116150,361.490051 745.029419,361.259827 
z"/>
<path fill="#080808" opacity="1.000000" stroke="none" 
	d="
M848.507080,576.499023 
	C848.488220,576.504578 848.525879,576.493469 848.507080,576.499023 
z"/>
<path fill="#A0722C" opacity="1.000000" stroke="none" 
	d="
M453.254761,377.825745 
	C453.213562,377.598755 453.442017,377.411713 453.882233,377.141510 
	C453.888763,377.308624 453.698914,377.577728 453.254761,377.825745 
z"/>
<path fill="#000000" opacity="1.000000" stroke="none" 
	d="
M830.298340,710.607666 
	C832.380127,715.119324 830.404907,718.695923 825.976624,718.984314 
	C823.865417,719.121765 821.737915,719.007996 819.412781,719.007996 
	C818.928894,715.320923 818.491272,711.986267 817.833008,706.970642 
	C822.431946,708.205444 826.262695,709.233948 830.298340,710.607666 
z"/>
<path fill="#000000" opacity="1.000000" stroke="none" 
	d="
M537.201416,719.382751 
	C534.760376,719.752319 532.677734,719.887878 530.276367,720.044128 
	C530.276367,715.899963 530.276367,712.213013 530.276367,707.994446 
	C532.594116,707.994446 534.690918,708.053894 536.783142,707.980591 
	C540.009094,707.867615 542.726624,708.262512 543.051880,712.378113 
	C543.375183,716.469666 542.248291,719.207520 537.201416,719.382751 
z"/>
<path fill="#000000" opacity="1.000000" stroke="none" 
	d="
M677.554565,708.003601 
	C682.470825,708.592896 682.743286,712.104736 681.813721,715.025879 
	C681.273560,716.723389 678.590576,718.211609 676.575012,718.836487 
	C674.480652,719.485901 672.028503,718.981262 669.339355,718.981262 
	C669.339355,715.353516 669.339355,712.001892 669.339355,707.993958 
	C671.952332,707.993958 674.530762,707.993958 677.554565,708.003601 
z"/>
<path fill="#000000" opacity="1.000000" stroke="none" 
	d="
M1075.022217,715.818726 
	C1075.018066,713.073120 1075.018066,710.792603 1075.018066,708.043518 
	C1078.298462,708.043518 1081.386230,707.287476 1083.755615,708.267883 
	C1085.888794,709.150513 1088.388672,711.794434 1088.650757,713.917786 
	C1089.023560,716.937256 1086.700317,719.688171 1083.043701,718.913025 
	C1080.335693,718.338928 1076.164429,721.652832 1075.022217,715.818726 
z"/>
<path fill="#000000" opacity="1.000000" stroke="none" 
	d="
M637.986084,721.437012 
	C635.436951,727.122437 630.420593,730.035400 625.830383,728.894348 
	C620.603271,727.594971 617.990540,724.294556 617.984253,718.982849 
	C617.976562,712.499756 620.585083,709.108643 626.677734,707.681396 
	C631.382874,706.579163 637.477661,711.018250 638.010803,716.038635 
	C638.185181,717.681152 638.023560,719.359253 637.986084,721.437012 
z"/>
<path fill="#000000" opacity="1.000000" stroke="none" 
	d="
M868.174866,717.039795 
	C869.848572,718.313538 871.176453,719.539978 873.553101,721.735107 
	C869.110596,721.735107 866.241150,721.735107 863.371704,721.735107 
	C863.123169,721.300598 862.874695,720.866089 862.626160,720.431580 
	C864.360474,719.285217 866.094727,718.138855 868.174866,717.039795 
z"/>
<path fill="#000000" opacity="1.000000" stroke="none" 
	d="
M586.727234,709.233521 
	C590.133789,718.114990 587.646667,720.107300 574.975647,718.542236 
	C574.975647,716.893799 574.947998,715.147827 574.983765,713.403137 
	C575.016846,711.791016 575.117981,710.180359 575.229492,707.655640 
	C579.168762,708.104309 582.791931,708.517029 586.727234,709.233521 
z"/>
<path fill="#000000" opacity="1.000000" stroke="none" 
	d="
M465.373840,718.799072 
	C465.018402,720.079773 464.557526,721.705994 463.825104,721.839172 
	C461.773071,722.212463 459.608887,721.969177 456.570312,721.969177 
	C458.274750,717.763672 459.737854,714.153687 461.557465,709.664062 
	C462.963593,713.113342 464.054016,715.788208 465.373840,718.799072 
z"/>
</svg>